<mxfile host="app.diagrams.net" agent="Mozilla/5.0 (Windows NT 10.0; Win64; x64) AppleWebKit/537.36 (KHTML, like Gecko) Chrome/140.0.0.0 Safari/537.36" version="28.2.5">
  <diagram name="1 oldal" id="6hovuS0ERnShdHHGEdC6">
    <mxGraphModel dx="3561" dy="2171" grid="1" gridSize="10" guides="1" tooltips="1" connect="1" arrows="1" fold="1" page="1" pageScale="1" pageWidth="827" pageHeight="1169" math="0" shadow="0">
      <root>
        <mxCell id="0" />
        <mxCell id="1" parent="0" />
        <mxCell id="eWUS8A3mK4v3yjJSB-37-11" style="rounded=0;orthogonalLoop=1;jettySize=auto;html=1;exitX=0.5;exitY=1;exitDx=0;exitDy=0;entryX=0.5;entryY=0;entryDx=0;entryDy=0;endArrow=none;endFill=0;" edge="1" parent="1" source="eWUS8A3mK4v3yjJSB-37-1" target="eWUS8A3mK4v3yjJSB-37-6">
          <mxGeometry relative="1" as="geometry" />
        </mxCell>
        <mxCell id="eWUS8A3mK4v3yjJSB-37-13" style="edgeStyle=none;rounded=0;orthogonalLoop=1;jettySize=auto;html=1;exitX=0.5;exitY=1;exitDx=0;exitDy=0;entryX=0.5;entryY=0;entryDx=0;entryDy=0;endArrow=none;endFill=0;" edge="1" parent="1" source="eWUS8A3mK4v3yjJSB-37-1" target="eWUS8A3mK4v3yjJSB-37-7">
          <mxGeometry relative="1" as="geometry" />
        </mxCell>
        <mxCell id="eWUS8A3mK4v3yjJSB-37-14" style="edgeStyle=none;rounded=0;orthogonalLoop=1;jettySize=auto;html=1;exitX=0.5;exitY=1;exitDx=0;exitDy=0;entryX=0.5;entryY=0;entryDx=0;entryDy=0;endArrow=none;endFill=0;" edge="1" parent="1" source="eWUS8A3mK4v3yjJSB-37-1" target="eWUS8A3mK4v3yjJSB-37-5">
          <mxGeometry relative="1" as="geometry" />
        </mxCell>
        <mxCell id="eWUS8A3mK4v3yjJSB-37-16" style="edgeStyle=none;rounded=0;orthogonalLoop=1;jettySize=auto;html=1;exitX=0.5;exitY=1;exitDx=0;exitDy=0;entryX=0.5;entryY=0;entryDx=0;entryDy=0;endArrow=none;endFill=0;" edge="1" parent="1" source="eWUS8A3mK4v3yjJSB-37-1" target="eWUS8A3mK4v3yjJSB-37-4">
          <mxGeometry relative="1" as="geometry" />
        </mxCell>
        <mxCell id="eWUS8A3mK4v3yjJSB-37-17" style="edgeStyle=none;rounded=0;orthogonalLoop=1;jettySize=auto;html=1;exitX=0.5;exitY=1;exitDx=0;exitDy=0;entryX=0.5;entryY=0;entryDx=0;entryDy=0;endArrow=none;endFill=0;" edge="1" parent="1" source="eWUS8A3mK4v3yjJSB-37-1" target="eWUS8A3mK4v3yjJSB-37-10">
          <mxGeometry relative="1" as="geometry" />
        </mxCell>
        <mxCell id="eWUS8A3mK4v3yjJSB-37-1" value="Vendeglatas" style="ellipse;whiteSpace=wrap;html=1;align=center;" vertex="1" parent="1">
          <mxGeometry x="390" y="-50" width="100" height="40" as="geometry" />
        </mxCell>
        <mxCell id="eWUS8A3mK4v3yjJSB-37-2" value="Gyakornok" style="ellipse;shape=doubleEllipse;margin=3;whiteSpace=wrap;html=1;align=center;" vertex="1" parent="1">
          <mxGeometry x="430" y="80" width="100" height="40" as="geometry" />
        </mxCell>
        <mxCell id="eWUS8A3mK4v3yjJSB-37-4" value="Vendeg" style="ellipse;shape=doubleEllipse;margin=3;whiteSpace=wrap;html=1;align=center;" vertex="1" parent="1">
          <mxGeometry x="550" y="80" width="100" height="40" as="geometry" />
        </mxCell>
        <mxCell id="eWUS8A3mK4v3yjJSB-37-5" value="Szakacs" style="ellipse;shape=doubleEllipse;margin=3;whiteSpace=wrap;html=1;align=center;" vertex="1" parent="1">
          <mxGeometry x="314" y="80" width="100" height="40" as="geometry" />
        </mxCell>
        <mxCell id="eWUS8A3mK4v3yjJSB-37-25" style="edgeStyle=none;rounded=0;orthogonalLoop=1;jettySize=auto;html=1;exitX=0.5;exitY=1;exitDx=0;exitDy=0;entryX=0.5;entryY=0;entryDx=0;entryDy=0;endArrow=none;endFill=0;" edge="1" parent="1" source="eWUS8A3mK4v3yjJSB-37-6" target="eWUS8A3mK4v3yjJSB-37-20">
          <mxGeometry relative="1" as="geometry" />
        </mxCell>
        <mxCell id="eWUS8A3mK4v3yjJSB-37-26" style="edgeStyle=none;rounded=0;orthogonalLoop=1;jettySize=auto;html=1;exitX=0.5;exitY=1;exitDx=0;exitDy=0;entryX=0.5;entryY=0;entryDx=0;entryDy=0;endArrow=none;endFill=0;" edge="1" parent="1" source="eWUS8A3mK4v3yjJSB-37-6" target="eWUS8A3mK4v3yjJSB-37-23">
          <mxGeometry relative="1" as="geometry" />
        </mxCell>
        <mxCell id="eWUS8A3mK4v3yjJSB-37-27" style="edgeStyle=none;rounded=0;orthogonalLoop=1;jettySize=auto;html=1;exitX=0.5;exitY=1;exitDx=0;exitDy=0;entryX=0.5;entryY=0;entryDx=0;entryDy=0;endArrow=none;endFill=0;" edge="1" parent="1" source="eWUS8A3mK4v3yjJSB-37-6" target="eWUS8A3mK4v3yjJSB-37-24">
          <mxGeometry relative="1" as="geometry" />
        </mxCell>
        <mxCell id="eWUS8A3mK4v3yjJSB-37-65" style="rounded=0;orthogonalLoop=1;jettySize=auto;html=1;exitX=0;exitY=0.5;exitDx=0;exitDy=0;entryX=1;entryY=0.5;entryDx=0;entryDy=0;endArrow=none;endFill=0;shape=wire;dashed=1;" edge="1" parent="1" source="eWUS8A3mK4v3yjJSB-37-6" target="eWUS8A3mK4v3yjJSB-37-64">
          <mxGeometry relative="1" as="geometry" />
        </mxCell>
        <mxCell id="eWUS8A3mK4v3yjJSB-37-6" value="Etterem" style="ellipse;shape=doubleEllipse;margin=3;whiteSpace=wrap;html=1;align=center;" vertex="1" parent="1">
          <mxGeometry x="-550" y="110" width="100" height="40" as="geometry" />
        </mxCell>
        <mxCell id="eWUS8A3mK4v3yjJSB-37-36" value="" style="edgeStyle=none;rounded=0;orthogonalLoop=1;jettySize=auto;html=1;entryX=0;entryY=0;entryDx=0;entryDy=0;endArrow=none;endFill=0;" edge="1" parent="1" source="eWUS8A3mK4v3yjJSB-37-7" target="eWUS8A3mK4v3yjJSB-37-35">
          <mxGeometry relative="1" as="geometry" />
        </mxCell>
        <mxCell id="eWUS8A3mK4v3yjJSB-37-49" style="edgeStyle=none;rounded=0;orthogonalLoop=1;jettySize=auto;html=1;exitX=0;exitY=1;exitDx=0;exitDy=0;entryX=1;entryY=0;entryDx=0;entryDy=0;endArrow=none;endFill=0;" edge="1" parent="1" source="eWUS8A3mK4v3yjJSB-37-7" target="eWUS8A3mK4v3yjJSB-37-48">
          <mxGeometry relative="1" as="geometry" />
        </mxCell>
        <mxCell id="eWUS8A3mK4v3yjJSB-37-54" style="edgeStyle=none;rounded=0;orthogonalLoop=1;jettySize=auto;html=1;exitX=0.5;exitY=1;exitDx=0;exitDy=0;entryX=0.5;entryY=0;entryDx=0;entryDy=0;endArrow=none;endFill=0;" edge="1" parent="1" source="eWUS8A3mK4v3yjJSB-37-7" target="eWUS8A3mK4v3yjJSB-37-50">
          <mxGeometry relative="1" as="geometry" />
        </mxCell>
        <mxCell id="eWUS8A3mK4v3yjJSB-37-55" style="edgeStyle=none;rounded=0;orthogonalLoop=1;jettySize=auto;html=1;exitX=0.5;exitY=1;exitDx=0;exitDy=0;entryX=0.5;entryY=0;entryDx=0;entryDy=0;endArrow=none;endFill=0;" edge="1" parent="1" source="eWUS8A3mK4v3yjJSB-37-7" target="eWUS8A3mK4v3yjJSB-37-51">
          <mxGeometry relative="1" as="geometry" />
        </mxCell>
        <mxCell id="eWUS8A3mK4v3yjJSB-37-56" style="edgeStyle=none;rounded=0;orthogonalLoop=1;jettySize=auto;html=1;exitX=0.5;exitY=1;exitDx=0;exitDy=0;entryX=0.5;entryY=0;entryDx=0;entryDy=0;endArrow=none;endFill=0;" edge="1" parent="1" source="eWUS8A3mK4v3yjJSB-37-7" target="eWUS8A3mK4v3yjJSB-37-53">
          <mxGeometry relative="1" as="geometry" />
        </mxCell>
        <mxCell id="eWUS8A3mK4v3yjJSB-37-7" value="Foszakacs" style="ellipse;shape=doubleEllipse;margin=3;whiteSpace=wrap;html=1;align=center;" vertex="1" parent="1">
          <mxGeometry x="-50" y="110" width="100" height="40" as="geometry" />
        </mxCell>
        <mxCell id="eWUS8A3mK4v3yjJSB-37-10" value="Rendeles" style="ellipse;shape=doubleEllipse;margin=3;whiteSpace=wrap;html=1;align=center;" vertex="1" parent="1">
          <mxGeometry x="750" y="80" width="100" height="40" as="geometry" />
        </mxCell>
        <mxCell id="eWUS8A3mK4v3yjJSB-37-15" style="edgeStyle=none;rounded=0;orthogonalLoop=1;jettySize=auto;html=1;exitX=0.5;exitY=1;exitDx=0;exitDy=0;entryX=0.5;entryY=0;entryDx=0;entryDy=0;endArrow=none;endFill=0;" edge="1" parent="1" source="eWUS8A3mK4v3yjJSB-37-1" target="eWUS8A3mK4v3yjJSB-37-2">
          <mxGeometry relative="1" as="geometry" />
        </mxCell>
        <mxCell id="eWUS8A3mK4v3yjJSB-37-46" style="edgeStyle=none;rounded=0;orthogonalLoop=1;jettySize=auto;html=1;exitX=0.5;exitY=1;exitDx=0;exitDy=0;entryX=0.5;entryY=0;entryDx=0;entryDy=0;endArrow=none;endFill=0;" edge="1" parent="1" source="eWUS8A3mK4v3yjJSB-37-20" target="eWUS8A3mK4v3yjJSB-37-43">
          <mxGeometry relative="1" as="geometry" />
        </mxCell>
        <mxCell id="eWUS8A3mK4v3yjJSB-37-20" value="Nev" style="ellipse;whiteSpace=wrap;html=1;align=center;" vertex="1" parent="1">
          <mxGeometry x="-800" y="250" width="100" height="40" as="geometry" />
        </mxCell>
        <mxCell id="eWUS8A3mK4v3yjJSB-37-31" style="edgeStyle=none;rounded=0;orthogonalLoop=1;jettySize=auto;html=1;exitX=0.5;exitY=1;exitDx=0;exitDy=0;entryX=0.5;entryY=0;entryDx=0;entryDy=0;endArrow=none;endFill=0;" edge="1" parent="1" source="eWUS8A3mK4v3yjJSB-37-23" target="eWUS8A3mK4v3yjJSB-37-28">
          <mxGeometry relative="1" as="geometry" />
        </mxCell>
        <mxCell id="eWUS8A3mK4v3yjJSB-37-32" style="edgeStyle=none;rounded=0;orthogonalLoop=1;jettySize=auto;html=1;exitX=0.5;exitY=1;exitDx=0;exitDy=0;entryX=0.5;entryY=0;entryDx=0;entryDy=0;endArrow=none;endFill=0;" edge="1" parent="1" source="eWUS8A3mK4v3yjJSB-37-23" target="eWUS8A3mK4v3yjJSB-37-29">
          <mxGeometry relative="1" as="geometry" />
        </mxCell>
        <mxCell id="eWUS8A3mK4v3yjJSB-37-33" style="edgeStyle=none;rounded=0;orthogonalLoop=1;jettySize=auto;html=1;exitX=0.5;exitY=1;exitDx=0;exitDy=0;entryX=0.5;entryY=0;entryDx=0;entryDy=0;endArrow=none;endFill=0;" edge="1" parent="1" source="eWUS8A3mK4v3yjJSB-37-23" target="eWUS8A3mK4v3yjJSB-37-30">
          <mxGeometry relative="1" as="geometry" />
        </mxCell>
        <mxCell id="eWUS8A3mK4v3yjJSB-37-23" value="cim" style="ellipse;whiteSpace=wrap;html=1;align=center;" vertex="1" parent="1">
          <mxGeometry x="-550" y="190" width="100" height="40" as="geometry" />
        </mxCell>
        <mxCell id="eWUS8A3mK4v3yjJSB-37-45" style="edgeStyle=none;rounded=0;orthogonalLoop=1;jettySize=auto;html=1;exitX=0.5;exitY=1;exitDx=0;exitDy=0;endArrow=none;endFill=0;" edge="1" parent="1" source="eWUS8A3mK4v3yjJSB-37-24" target="eWUS8A3mK4v3yjJSB-37-44">
          <mxGeometry relative="1" as="geometry" />
        </mxCell>
        <mxCell id="eWUS8A3mK4v3yjJSB-37-24" value="csillag" style="ellipse;whiteSpace=wrap;html=1;align=center;" vertex="1" parent="1">
          <mxGeometry x="-320" y="250" width="100" height="40" as="geometry" />
        </mxCell>
        <mxCell id="eWUS8A3mK4v3yjJSB-37-40" style="edgeStyle=none;rounded=0;orthogonalLoop=1;jettySize=auto;html=1;exitX=0.5;exitY=1;exitDx=0;exitDy=0;entryX=0.5;entryY=0;entryDx=0;entryDy=0;endArrow=none;endFill=0;" edge="1" parent="1" source="eWUS8A3mK4v3yjJSB-37-28" target="eWUS8A3mK4v3yjJSB-37-39">
          <mxGeometry relative="1" as="geometry" />
        </mxCell>
        <mxCell id="eWUS8A3mK4v3yjJSB-37-28" value="Varos" style="ellipse;whiteSpace=wrap;html=1;align=center;" vertex="1" parent="1">
          <mxGeometry x="-660" y="280" width="100" height="40" as="geometry" />
        </mxCell>
        <mxCell id="eWUS8A3mK4v3yjJSB-37-41" style="edgeStyle=none;rounded=0;orthogonalLoop=1;jettySize=auto;html=1;exitX=0.5;exitY=1;exitDx=0;exitDy=0;endArrow=none;endFill=0;" edge="1" parent="1" source="eWUS8A3mK4v3yjJSB-37-29" target="eWUS8A3mK4v3yjJSB-37-38">
          <mxGeometry relative="1" as="geometry" />
        </mxCell>
        <mxCell id="eWUS8A3mK4v3yjJSB-37-29" value="Utca" style="ellipse;whiteSpace=wrap;html=1;align=center;" vertex="1" parent="1">
          <mxGeometry x="-550" y="280" width="100" height="40" as="geometry" />
        </mxCell>
        <mxCell id="eWUS8A3mK4v3yjJSB-37-42" style="edgeStyle=none;rounded=0;orthogonalLoop=1;jettySize=auto;html=1;exitX=0.5;exitY=1;exitDx=0;exitDy=0;entryX=0.5;entryY=0;entryDx=0;entryDy=0;endArrow=none;endFill=0;" edge="1" parent="1" source="eWUS8A3mK4v3yjJSB-37-30" target="eWUS8A3mK4v3yjJSB-37-37">
          <mxGeometry relative="1" as="geometry" />
        </mxCell>
        <mxCell id="eWUS8A3mK4v3yjJSB-37-30" value="Hazszam" style="ellipse;whiteSpace=wrap;html=1;align=center;" vertex="1" parent="1">
          <mxGeometry x="-440" y="280" width="100" height="40" as="geometry" />
        </mxCell>
        <mxCell id="eWUS8A3mK4v3yjJSB-37-66" style="edgeStyle=orthogonalEdgeStyle;rounded=0;orthogonalLoop=1;jettySize=auto;html=1;exitX=0.5;exitY=1;exitDx=0;exitDy=0;entryX=0.5;entryY=1;entryDx=0;entryDy=0;dashed=1;" edge="1" parent="1" source="eWUS8A3mK4v3yjJSB-37-35" target="eWUS8A3mK4v3yjJSB-37-64">
          <mxGeometry relative="1" as="geometry">
            <Array as="points">
              <mxPoint x="250" y="470" />
              <mxPoint x="-900" y="470" />
            </Array>
          </mxGeometry>
        </mxCell>
        <mxCell id="eWUS8A3mK4v3yjJSB-37-35" value="&lt;u&gt;E_F&lt;/u&gt;" style="rhombus;whiteSpace=wrap;html=1;" vertex="1" parent="1">
          <mxGeometry x="210" y="180" width="80" height="80" as="geometry" />
        </mxCell>
        <mxCell id="eWUS8A3mK4v3yjJSB-37-37" value="" style="rounded=0;whiteSpace=wrap;html=1;" vertex="1" parent="1">
          <mxGeometry x="-410" y="370" width="40" height="60" as="geometry" />
        </mxCell>
        <mxCell id="eWUS8A3mK4v3yjJSB-37-38" value="" style="rounded=0;whiteSpace=wrap;html=1;" vertex="1" parent="1">
          <mxGeometry x="-520" y="370" width="40" height="60" as="geometry" />
        </mxCell>
        <mxCell id="eWUS8A3mK4v3yjJSB-37-39" value="" style="rounded=0;whiteSpace=wrap;html=1;" vertex="1" parent="1">
          <mxGeometry x="-630" y="360" width="40" height="60" as="geometry" />
        </mxCell>
        <mxCell id="eWUS8A3mK4v3yjJSB-37-43" value="" style="rounded=0;whiteSpace=wrap;html=1;" vertex="1" parent="1">
          <mxGeometry x="-770" y="340" width="40" height="60" as="geometry" />
        </mxCell>
        <mxCell id="eWUS8A3mK4v3yjJSB-37-44" value="" style="rounded=0;whiteSpace=wrap;html=1;" vertex="1" parent="1">
          <mxGeometry x="-290" y="340" width="40" height="60" as="geometry" />
        </mxCell>
        <mxCell id="eWUS8A3mK4v3yjJSB-37-48" value="&lt;u&gt;FKod&lt;/u&gt;" style="rhombus;whiteSpace=wrap;html=1;" vertex="1" parent="1">
          <mxGeometry x="-230" y="170" width="80" height="80" as="geometry" />
        </mxCell>
        <mxCell id="eWUS8A3mK4v3yjJSB-37-61" style="edgeStyle=none;rounded=0;orthogonalLoop=1;jettySize=auto;html=1;exitX=0.5;exitY=1;exitDx=0;exitDy=0;entryX=0.5;entryY=0;entryDx=0;entryDy=0;endArrow=none;endFill=0;" edge="1" parent="1" source="eWUS8A3mK4v3yjJSB-37-50" target="eWUS8A3mK4v3yjJSB-37-58">
          <mxGeometry relative="1" as="geometry" />
        </mxCell>
        <mxCell id="eWUS8A3mK4v3yjJSB-37-50" value="Nev" style="ellipse;whiteSpace=wrap;html=1;align=center;" vertex="1" parent="1">
          <mxGeometry x="-160" y="220" width="100" height="40" as="geometry" />
        </mxCell>
        <mxCell id="eWUS8A3mK4v3yjJSB-37-62" style="edgeStyle=none;rounded=0;orthogonalLoop=1;jettySize=auto;html=1;exitX=0.5;exitY=1;exitDx=0;exitDy=0;endArrow=none;endFill=0;" edge="1" parent="1" source="eWUS8A3mK4v3yjJSB-37-51" target="eWUS8A3mK4v3yjJSB-37-59">
          <mxGeometry relative="1" as="geometry" />
        </mxCell>
        <mxCell id="eWUS8A3mK4v3yjJSB-37-51" value="Eletkor" style="ellipse;whiteSpace=wrap;html=1;align=center;" vertex="1" parent="1">
          <mxGeometry x="-50" y="220" width="100" height="40" as="geometry" />
        </mxCell>
        <mxCell id="eWUS8A3mK4v3yjJSB-37-63" style="edgeStyle=none;rounded=0;orthogonalLoop=1;jettySize=auto;html=1;exitX=0.5;exitY=1;exitDx=0;exitDy=0;entryX=0.5;entryY=0;entryDx=0;entryDy=0;endArrow=none;endFill=0;" edge="1" parent="1" source="eWUS8A3mK4v3yjJSB-37-53" target="eWUS8A3mK4v3yjJSB-37-60">
          <mxGeometry relative="1" as="geometry" />
        </mxCell>
        <mxCell id="eWUS8A3mK4v3yjJSB-37-53" value="Vegzettseg" style="ellipse;shape=doubleEllipse;margin=3;whiteSpace=wrap;html=1;align=center;" vertex="1" parent="1">
          <mxGeometry x="70" y="220" width="100" height="40" as="geometry" />
        </mxCell>
        <mxCell id="eWUS8A3mK4v3yjJSB-37-58" value="" style="rounded=0;whiteSpace=wrap;html=1;" vertex="1" parent="1">
          <mxGeometry x="-130" y="300" width="40" height="60" as="geometry" />
        </mxCell>
        <mxCell id="eWUS8A3mK4v3yjJSB-37-59" value="" style="rounded=0;whiteSpace=wrap;html=1;" vertex="1" parent="1">
          <mxGeometry x="-20" y="300" width="40" height="60" as="geometry" />
        </mxCell>
        <mxCell id="eWUS8A3mK4v3yjJSB-37-60" value="" style="rounded=0;whiteSpace=wrap;html=1;" vertex="1" parent="1">
          <mxGeometry x="100" y="300" width="40" height="60" as="geometry" />
        </mxCell>
        <mxCell id="eWUS8A3mK4v3yjJSB-37-64" value="&lt;u&gt;FKod&lt;/u&gt;" style="rhombus;whiteSpace=wrap;html=1;" vertex="1" parent="1">
          <mxGeometry x="-940" y="100" width="80" height="80" as="geometry" />
        </mxCell>
      </root>
    </mxGraphModel>
  </diagram>
</mxfile>
